<svg preserveAspectRatio="none" width="100%" height="100%" overflow="visible" style="display: block;" viewBox="0 0 88 88" fill="none" xmlns="http://www.w3.org/2000/svg">
<g id="filter-remove">
<g id="Group">
<path id="Vector" d="M49.1702 76.2299L44.0002 79.5667C39.1969 82.5367 32.5235 79.1999 32.5235 73.2599V53.6434C32.5235 51.04 31.0569 47.7034 29.5536 45.87L15.4735 31.0566C13.6035 29.1866 12.1369 25.8867 12.1369 23.65V15.1434C12.1369 10.7067 15.4735 7.37004 19.5435 7.37004H68.4569C72.5269 7.37004 75.8636 10.7068 75.8636 14.7768V22.9167C75.8636 25.8867 73.9936 29.59 72.1602 31.4234" stroke="var(--stroke-0, #11191F)" stroke-width="3.66667" stroke-miterlimit="10" stroke-linecap="round" stroke-linejoin="round"/>
</g>
<path id="Vector_2" d="M79.31 54.0833C79.31 57.3467 78.3934 60.4267 76.78 63.0667C73.7734 68.1267 68.2367 71.5 61.8933 71.5C55.55 71.5 50.0134 68.09 47.0067 63.0667C45.3933 60.4634 44.4767 57.3467 44.4767 54.0833C44.4767 44.4767 52.2867 36.6667 61.8933 36.6667C71.5 36.6667 79.31 44.4767 79.31 54.0833Z" stroke="var(--stroke-0, #11191F)" stroke-width="3.66667" stroke-miterlimit="10" stroke-linecap="round" stroke-linejoin="round"/>
<g id="Group_2">
<path id="Vector_3" d="M66.5501 58.63L57.3467 49.4266" stroke="var(--stroke-0, #11191F)" stroke-width="3.66667" stroke-miterlimit="10" stroke-linecap="round" stroke-linejoin="round"/>
<path id="Vector_4" d="M66.4766 49.5367L57.2733 58.7401" stroke="var(--stroke-0, #11191F)" stroke-width="3.66667" stroke-miterlimit="10" stroke-linecap="round" stroke-linejoin="round"/>
</g>
<g id="Vector_5" opacity="0">
</g>
<g id="Group_3">
<path id="Vector_6" d="M75.8636 14.7401V22.88C75.8636 25.85 73.9936 29.5534 72.1602 31.4234L65.7069 37.1067C64.4969 36.8133 63.2135 36.6667 61.8935 36.6667C52.2869 36.6667 44.4769 44.4767 44.4769 54.0833C44.4769 57.3467 45.3936 60.4267 47.0069 63.0667C48.3636 65.34 50.2336 67.2833 52.5069 68.6766V69.9234C52.5069 72.16 51.0402 75.1299 49.1702 76.2299L44.0002 79.5667C39.1969 82.5367 32.5235 79.1999 32.5235 73.2599V53.6434C32.5235 51.04 31.0202 47.7034 29.5536 45.87L15.4735 31.0566C13.6402 29.1866 12.1369 25.85 12.1369 23.65V15.1066C12.1369 10.67 15.4735 7.33333 19.5435 7.33333H68.4569C72.5269 7.33333 75.8636 10.6701 75.8636 14.7401Z" stroke="var(--stroke-0, #11191F)" stroke-width="3.66667" stroke-miterlimit="10" stroke-linecap="round" stroke-linejoin="round"/>
</g>
</g>
</svg>
